<svg version="1.1" id="Layer_1" xmlns="http://www.w3.org/2000/svg" xmlns:xlink="http://www.w3.org/1999/xlink" x="0px" y="0px"
     width="100%" viewBox="0 0 416 352" enable-background="new 0 0 416 352" xml:space="preserve">
<path fill="#000000" opacity="1.000000" stroke="none"
      d="
M195.468414,353.000000
	C186.064987,347.786469 179.843826,340.606049 178.753159,329.928589
	C178.246307,324.966522 177.929367,319.964935 177.895798,314.978760
	C177.817245,303.315735 177.671356,291.640259 178.111526,279.990936
	C178.441818,271.249359 175.393463,265.589264 166.999084,262.119537
	C157.584442,258.228058 149.264252,252.240585 141.424408,245.711456
	C127.581680,234.183044 125.167740,219.294144 129.177399,202.717224
	C132.419571,189.313217 137.061279,176.258423 139.201340,162.575623
	C143.354034,136.024353 141.037827,110.468727 127.590340,86.606697
	C122.886589,78.260094 116.695732,72.132278 106.595062,70.656738
	C91.480186,68.448723 77.639915,83.440346 81.620163,98.168541
	C82.907944,102.933784 86.336082,105.505348 91.107689,106.749176
	C97.303711,108.364319 103.692764,107.251228 109.938576,108.691933
	C124.887329,112.140099 136.514038,126.140984 136.156891,141.175156
	C136.063293,145.115768 133.705872,148.399994 131.839325,151.710678
	C120.080025,172.568344 91.259727,178.489502 74.283173,163.567123
	C68.322792,158.327957 64.664307,151.576294 62.943943,143.978592
	C61.302677,136.730240 58.483955,130.165482 54.707745,123.782677
	C45.019165,107.406395 42.890831,90.202141 49.610394,72.044151
	C56.881844,52.394806 79.509804,36.257629 100.448631,35.585167
	C114.655342,35.128906 127.584953,38.425388 138.848953,47.081974
	C147.550247,53.769077 155.915802,53.758583 165.781784,49.121002
	C191.032532,37.251667 216.853012,36.999493 242.700851,47.678345
	C244.547424,48.441257 246.425095,49.165752 248.177948,50.112453
	C256.313446,54.506348 263.666595,53.361816 270.901855,47.750465
	C282.111298,39.056885 295.028992,35.388924 309.174255,35.689087
	C339.011627,36.322227 364.557068,61.595085 365.183563,91.417656
	C365.442749,103.754906 361.196289,114.947632 355.351410,125.577614
	C352.595886,130.589096 350.372467,135.772018 349.583923,141.441467
	C347.068298,159.528458 332.182037,168.728867 315.952698,171.280899
	C303.625244,173.219391 293.328247,168.979050 284.647186,160.429733
	C268.457642,144.485855 272.529297,121.160156 293.234436,111.473160
	C300.086578,108.267365 307.237854,106.496117 315.011505,107.436935
	C323.642639,108.481529 328.234436,104.335617 328.865967,95.676277
	C329.769958,83.281769 324.109711,75.023094 312.110901,71.229591
	C301.865509,67.990448 292.484528,72.073219 286.239777,82.019020
	C273.320343,102.595245 267.703369,124.981621 269.398895,149.151459
	C270.382324,163.170822 274.254272,176.613708 278.319458,189.998489
	C280.882385,198.437119 282.887299,206.985382 283.384979,215.869034
	C284.231140,230.973389 277.496490,241.774139 264.884918,249.327118
	C260.887726,251.721008 256.676422,253.754227 252.617218,256.048187
	C236.845230,264.961304 230.292053,279.740784 232.707962,297.711853
	C234.233322,309.058441 234.334518,320.661926 232.138855,332.032135
	C230.271133,341.704041 224.378525,348.408112 215.254456,352.777344
	C208.645599,353.000000 202.291214,353.000000 195.468414,353.000000
M154.247787,116.607246
	C155.541138,123.821220 156.347961,131.058441 156.428391,138.419647
	C156.510742,145.956558 162.139908,149.191681 168.275269,145.641632
	C172.488068,143.204025 172.227051,139.249924 171.271042,135.496338
	C169.136093,127.113777 166.492401,118.861916 164.289963,110.495201
	C158.910187,90.058296 167.987350,75.762299 188.639999,71.469070
	C200.432236,69.017723 212.070694,69.816307 223.853668,71.593018
	C243.367538,74.535423 249.830917,92.611275 247.484253,104.688103
	C245.426392,115.278709 242.218521,125.641060 239.742691,136.156998
	C238.187698,142.761703 239.020569,144.259140 245.181625,146.879242
	C252.092377,149.818176 255.410309,154.771011 255.424881,162.405243
	C255.434784,167.593903 253.862976,172.316147 252.099609,176.906372
	C248.624786,185.951660 256.479004,198.120163 266.061401,201.806702
	C265.903290,200.588379 265.878174,199.415421 265.585449,198.313568
	C264.475372,194.135361 263.456299,189.920685 262.085052,185.826172
	C254.032272,161.780701 251.950714,137.343964 257.792328,112.560806
	C261.315155,97.615265 265.726196,82.768120 275.405701,70.502289
	C283.910736,59.724735 295.023376,52.277241 309.458893,54.482361
	C335.575165,58.471798 349.701569,81.828407 342.068756,107.146461
	C341.561707,108.828369 340.626190,110.510437 342.843231,112.376839
	C348.809662,104.404701 351.550781,95.836472 350.301117,86.136101
	C348.681976,73.567451 341.561249,64.408707 331.790070,57.022522
	C313.281952,43.031918 288.306580,46.497501 275.111725,64.820251
	C266.313416,77.037819 262.555145,77.748192 250.441574,68.810822
	C233.322418,56.180336 214.086395,53.095493 193.544662,55.879665
	C178.317581,57.943501 164.817154,64.390305 152.764786,73.616096
	C148.467331,76.905685 146.020813,76.583183 142.467255,72.908020
	C136.201981,66.428345 128.998444,60.990227 121.354477,56.187939
	C103.106461,44.723713 86.325699,46.756210 72.204979,62.892700
	C61.419254,75.218117 56.907513,89.316925 63.567883,105.379723
	C64.660583,108.014984 65.725319,110.902245 68.708908,112.318039
	C70.325356,110.270531 69.522041,108.516403 68.847549,106.882881
	C66.368370,100.878601 66.061867,94.692886 66.606483,88.286575
	C68.305656,68.299149 93.038353,50.732586 112.603806,55.374359
	C125.620079,58.462376 133.284073,67.529236 139.688446,78.140892
	C146.724442,89.799080 150.738022,102.676773 154.247787,116.607246
M193.257019,240.499695
	C193.254120,265.295410 193.246078,290.091125 193.253494,314.886841
	C193.254684,318.880310 193.105240,322.890625 193.409515,326.863708
	C194.011292,334.721283 198.083908,338.636566 205.399002,338.788422
	C212.628616,338.938507 216.600449,335.087952 217.777557,327.258118
	C218.402283,323.102631 218.111008,318.990631 218.125961,314.843903
	C218.245865,281.575012 217.352264,248.301285 218.584808,215.036972
	C218.909531,206.273300 215.214859,202.451431 206.459869,202.237274
	C196.645233,201.997162 193.335693,204.870346 193.231308,214.039017
	C193.134705,222.524704 193.239441,231.012680 193.257019,240.499695
M181.642059,117.987045
	C183.387894,123.704140 185.133728,129.421234 187.251053,136.354843
	C188.639359,129.789383 191.703186,126.170204 197.013580,126.264084
	C206.602295,126.433594 217.702606,121.750313 224.127853,134.069855
	C226.950806,124.654755 229.888229,115.821426 232.217026,106.830460
	C234.740265,97.088882 229.739136,88.182968 221.124924,86.517563
	C210.710220,84.504097 200.221786,84.893967 189.815063,86.524506
	C182.678574,87.642654 178.382126,93.306969 178.223099,100.629173
	C178.097595,106.407700 180.212891,111.707878 181.642059,117.987045
M77.506355,133.199081
	C75.395660,140.687363 77.385628,146.371094 83.337242,151.225967
	C94.786201,160.565125 108.553185,156.114349 116.973061,148.697510
	C121.583893,144.635956 122.218613,137.161240 119.104240,132.176056
	C110.513855,118.425446 86.209641,118.616768 77.506355,133.199081
M334.594086,137.734894
	C333.863342,132.350250 330.668213,128.774384 326.228149,125.975899
	C312.152252,117.104164 299.289856,124.449165 291.263092,134.493973
	C290.242859,135.770737 290.187805,137.235931 290.409302,138.761292
	C291.816437,148.452301 301.775360,156.733154 312.044617,156.748810
	C323.933899,156.766937 333.012817,149.436172 334.594086,137.734894
M151.441513,218.944656
	C144.327637,226.948242 144.613480,230.235397 153.333176,236.529205
	C157.503830,239.539536 161.900650,242.241287 166.241394,245.010071
	C173.185028,249.439178 178.119781,248.464081 177.968826,239.584900
	C177.938034,237.774414 178.404083,235.955429 178.372787,234.145004
	C178.103317,218.563217 176.122360,202.931915 179.962692,187.205826
	C174.342667,191.942184 170.741928,197.972961 166.573898,203.526138
	C162.349625,209.154221 157.034485,213.684113 151.441513,218.944656
M240.892654,199.565475
	C237.688721,195.468765 234.484802,191.372055 231.280869,187.275345
	C233.561020,195.847290 234.770996,204.333267 233.854721,213.002029
	C232.978073,221.295898 233.096115,229.595047 233.398758,237.889877
	C233.516724,241.122940 234.001297,244.448685 236.222961,247.377762
	C246.462708,245.400757 253.804062,238.887573 261.129181,232.389587
	C267.551270,226.692657 267.485870,223.331177 260.320343,218.339401
	C253.001328,213.240707 246.875641,207.015747 240.892654,199.565475
M150.182098,180.503616
	C148.578354,186.953720 146.332581,193.267883 145.376724,200.235718
	C159.720749,195.222839 161.951096,180.523666 154.484024,165.048935
	C153.023438,170.209763 151.680405,174.955170 150.182098,180.503616
M204.029816,150.998505
	C202.904388,160.338455 203.358994,169.548508 206.205856,178.577271
	C208.367142,168.047241 208.375900,157.588516 206.502045,146.644623
	C204.376053,147.870895 204.354919,149.092270 204.029816,150.998505
z"/>
</svg>